<svg width="73" height="14" viewBox="0 0 73 14" fill="none" xmlns="http://www.w3.org/2000/svg">
<path fill-rule="evenodd" clip-rule="evenodd" d="M0 10.8533V5.92109L2.57589 3.3555H7.65443V0.0185547H10.3473V13.5418H2.67826V10.8533H0ZM2.70756 10.8547H7.65443V6.04258H2.70756V10.8547Z" fill="#9747FF"/>
<path fill-rule="evenodd" clip-rule="evenodd" d="M11.7051 13.5411H11.6904V7.09559H19.3302V6.04188H11.6904V3.3548H19.4621L22.0233 5.92039V13.5411H14.3833V10.8526L19.3302 10.854V9.44903H14.3833V10.8526H11.7051V13.5411Z" fill="#9747FF"/>
<path fill-rule="evenodd" clip-rule="evenodd" d="M23.3789 13.541V0.0177612H26.0572V3.3547H31.1357L33.6969 5.9203V13.541H26.0572V10.8525L31.0187 10.8539V6.04178H26.0572V10.8525H23.3789V13.541Z" fill="#9747FF"/>
<path fill-rule="evenodd" clip-rule="evenodd" d="M35.0547 13.541V0.0177612H37.7329V3.3547H42.8115L45.3727 5.9203V13.541H37.7329V10.8525L42.6945 10.8539V6.04178H37.7329V10.8525H35.0547V13.541Z" fill="#9747FF"/>
<path fill-rule="evenodd" clip-rule="evenodd" d="M51.4822 13.5409H49.2868L46.7256 10.9753V6.10352e-05H49.4331V10.8538H51.4822V13.5409Z" fill="#9747FF"/>
<path fill-rule="evenodd" clip-rule="evenodd" d="M52.8311 10.8526V3.3548H60.588L63.1639 5.92039V9.80027H55.5241V10.8526H52.8311ZM55.5241 10.8526L63.1639 10.854V13.5411H55.5241V10.8526ZM55.5241 7.44683H60.471V6.04188H55.5241V7.44683Z" fill="#9747FF"/>
<path fill-rule="evenodd" clip-rule="evenodd" d="M64.5137 13.5409V5.92027L67.0749 3.35468H72.6951V6.04176H67.1921V13.5409H64.5137Z" fill="#9747FF"/>
</svg>
