<svg width="98" height="18" viewBox="0 0 98 18" fill="none" xmlns="http://www.w3.org/2000/svg">
<path fill-rule="evenodd" clip-rule="evenodd" d="M0 14.3739V7.84122L3.41177 4.44309H10.1383V0.0233154H13.705V17.9348H3.54736V14.3739H0ZM3.58617 14.3758H10.1383V8.00213H3.58617V14.3758Z" fill="#9747FF"/>
<path fill-rule="evenodd" clip-rule="evenodd" d="M15.7244 17.9348H15.705V9.3978H25.8239V8.00215H15.705V4.44312H25.9985L29.3909 7.84124V17.9348H19.2718V14.3739L25.8239 14.3758V12.5149H19.2718V14.3739H15.7244V17.9348Z" fill="#9747FF"/>
<path fill-rule="evenodd" clip-rule="evenodd" d="M31.3909 17.9348V0.0233154H34.9383V4.44309H41.6648L45.0572 7.84122V17.9348H34.9383V14.3739L41.5098 14.3758V8.00213H34.9383V14.3739H31.3909V17.9348Z" fill="#9747FF"/>
<path fill-rule="evenodd" clip-rule="evenodd" d="M47.0571 17.9348V0.0233154H50.6045V4.44309H57.331L60.7234 7.84122V17.9348H50.6045V14.3739L57.176 14.3758V8.00213H50.6045V14.3739H47.0571V17.9348Z" fill="#9747FF"/>
<path fill-rule="evenodd" clip-rule="evenodd" d="M69.0235 17.9348H66.1158L62.7234 14.5367V0H66.3096V14.3758H69.0235V17.9348Z" fill="#9747FF"/>
<path fill-rule="evenodd" clip-rule="evenodd" d="M71.0235 14.3739V4.44312H81.2976L84.7094 7.84124V12.9801H74.5905V14.3739H71.0235ZM74.5905 14.3739L84.7094 14.3758V17.9348H74.5905V14.3739ZM74.5905 9.86301H81.1426V8.00215H74.5905V9.86301Z" fill="#9747FF"/>
<path fill-rule="evenodd" clip-rule="evenodd" d="M86.7094 17.9348V7.84124L90.1017 4.44312H97.5457V8.00215H90.2569V17.9348H86.7094Z" fill="#9747FF"/>
</svg>
